<svg width="39" height="34" viewBox="0 0 39 34" fill="none" xmlns="http://www.w3.org/2000/svg">
<path d="M6 2C6.55228 2 7 2.44772 7 3V30C7 30.5523 6.55228 31 6 31C5.44772 31 5 30.5523 5 30V3C5 2.44772 5.44772 2 6 2ZM19 2C19.5523 2 20 2.44772 20 3V30C20 30.5523 19.5523 31 19 31C18.4477 31 18 30.5523 18 30V3C18 2.44772 18.4477 2 19 2ZM32 2C32.5523 2 33 2.44772 33 3V30C33 30.5523 32.5523 31 32 31C31.4477 31 31 30.5523 31 30V3C31 2.44772 31.4477 2 32 2ZM10.5 22C11.0523 22 11.5 22.4477 11.5 23C11.5 23.5523 11.0523 24 10.5 24C9.94772 24 9.5 23.5523 9.5 23C9.5 22.4477 9.94772 22 10.5 22ZM14.5 22C15.0523 22 15.5 22.4477 15.5 23C15.5 23.5523 15.0523 24 14.5 24C13.9477 24 13.5 23.5523 13.5 23C13.5 22.4477 13.9477 22 14.5 22ZM23.5 22C24.0523 22 24.5 22.4477 24.5 23C24.5 23.5523 24.0523 24 23.5 24C22.9477 24 22.5 23.5523 22.5 23C22.5 22.4477 22.9477 22 23.5 22ZM27.5 22C28.0523 22 28.5 22.4477 28.5 23C28.5 23.5523 28.0523 24 27.5 24C26.9477 24 26.5 23.5523 26.5 23C26.5 22.4477 26.9477 22 27.5 22ZM10.5 15C11.0523 15 11.5 15.4477 11.5 16C11.5 16.5523 11.0523 17 10.5 17C9.94772 17 9.5 16.5523 9.5 16C9.5 15.4477 9.94772 15 10.5 15ZM14.5 15C15.0523 15 15.5 15.4477 15.5 16C15.5 16.5523 15.0523 17 14.5 17C13.9477 17 13.5 16.5523 13.5 16C13.5 15.4477 13.9477 15 14.5 15ZM23.5 15C24.0523 15 24.5 15.4477 24.5 16C24.5 16.5523 24.0523 17 23.5 17C22.9477 17 22.5 16.5523 22.5 16C22.5 15.4477 22.9477 15 23.5 15ZM27.5 15C28.0523 15 28.5 15.4477 28.5 16C28.5 16.5523 28.0523 17 27.5 17C26.9477 17 26.5 16.5523 26.5 16C26.5 15.4477 26.9477 15 27.5 15ZM10.5 8C11.0523 8 11.5 8.44772 11.5 9C11.5 9.55228 11.0523 10 10.5 10C9.94772 10 9.5 9.55228 9.5 9C9.5 8.44772 9.94772 8 10.5 8ZM14.5 8C15.0523 8 15.5 8.44772 15.5 9C15.5 9.55228 15.0523 10 14.5 10C13.9477 10 13.5 9.55228 13.5 9C13.5 8.44772 13.9477 8 14.5 8ZM23.5 8C24.0523 8 24.5 8.44772 24.5 9C24.5 9.55228 24.0523 10 23.5 10C22.9477 10 22.5 9.55228 22.5 9C22.5 8.44772 22.9477 8 23.5 8ZM27.5 8C28.0523 8 28.5 8.44772 28.5 9C28.5 9.55228 28.0523 10 27.5 10C26.9477 10 26.5 9.55228 26.5 9C26.5 8.44772 26.9477 8 27.5 8Z" fill="#A6A6A5"/>
</svg>
