<svg width="55" height="54" viewBox="0 0 55 54" fill="none" xmlns="http://www.w3.org/2000/svg">
<path d="M17.1203 30.3313C14.7618 31.5413 13.1479 33.9974 13.1479 36.8305C13.1479 40.8622 16.4163 44.1306 20.448 44.1306C24.4797 44.1306 27.748 40.8622 27.748 36.8305C27.748 33.9974 26.1342 31.5413 23.7757 30.3313" stroke="#A6A6A5" stroke-width="2"/>
<path d="M16.6025 31.2161V7.83594C16.6025 5.71201 18.3243 3.99023 20.4482 3.99023C22.5722 3.99023 24.2939 5.71201 24.2939 7.83594V31.2161" stroke="#A6A6A5" stroke-width="2"/>
<circle cx="20.4485" cy="36.9067" r="3.30396" fill="#A6A6A5"/>
<path d="M21.4482 33.4944C21.4481 34.0466 21.0004 34.4944 20.4482 34.4944C19.896 34.4944 19.4484 34.0466 19.4482 33.4944L19.4482 12.677C19.4482 12.1247 19.896 11.677 20.4482 11.677C21.0005 11.677 21.4482 12.1247 21.4482 12.677L21.4482 33.4944Z" fill="#A6A6A5"/>
<path d="M30.4002 14.9727C29.848 14.9725 29.4002 14.5249 29.4002 13.9727C29.4002 13.4205 29.848 12.9728 30.4002 12.9727L44.1084 12.9727C44.6607 12.9727 45.1084 13.4204 45.1084 13.9727C45.1084 14.5249 44.6607 14.9727 44.1084 14.9727L30.4002 14.9727Z" fill="#A6A6A5"/>
<path d="M30.4 21.9321C29.8478 21.932 29.4 21.4843 29.4 20.9321C29.4 20.3799 29.8478 19.9323 30.4 19.9321L39.2085 19.9321C39.7608 19.9321 40.2085 20.3798 40.2085 20.9321C40.2085 21.4844 39.7608 21.9321 39.2085 21.9321L30.4 21.9321Z" fill="#A6A6A5"/>
<path d="M30.4002 28.8916C29.8481 28.8915 29.4002 28.4438 29.4002 27.8916C29.4002 27.3394 29.8481 26.8917 30.4002 26.8916L41.1313 26.8916C41.6836 26.8916 42.1313 27.3393 42.1313 27.8916C42.1313 28.4439 41.6836 28.8916 41.1313 28.8916L30.4002 28.8916Z" fill="#A6A6A5"/>
</svg>
