<svg width="55" height="55" viewBox="0 0 55 55" fill="none" xmlns="http://www.w3.org/2000/svg">
<path d="M46 9.32558V19.9302C46 20.2818 45.8603 20.619 45.6117 20.8676C45.3632 21.1162 45.026 21.2558 44.6744 21.2558C44.3229 21.2558 43.9857 21.1162 43.7371 20.8676C43.4885 20.619 43.3488 20.2818 43.3488 19.9302V12.5247L33.2391 22.6344C32.9878 22.8686 32.6554 22.996 32.312 22.99C31.9686 22.9839 31.6409 22.8448 31.3981 22.6019C31.1552 22.3591 31.0161 22.0314 31.01 21.688C31.004 21.3446 31.1314 21.0122 31.3656 20.7609L41.4753 10.6512H34.0698C33.7182 10.6512 33.381 10.5115 33.1324 10.2629C32.8838 10.0143 32.7442 9.67715 32.7442 9.32558C32.7442 8.97402 32.8838 8.63685 33.1324 8.38825C33.381 8.13966 33.7182 8 34.0698 8H44.6744C45.026 8 45.3632 8.13966 45.6117 8.38825C45.8603 8.63685 46 8.97402 46 9.32558ZM20.7609 31.3656L10.6512 41.4753V34.0698C10.6512 33.7182 10.5115 33.381 10.2629 33.1324C10.0143 32.8838 9.67715 32.7442 9.32558 32.7442C8.97402 32.7442 8.63685 32.8838 8.38825 33.1324C8.13966 33.381 8 33.7182 8 34.0698V44.6744C8 45.026 8.13966 45.3632 8.38825 45.6117C8.63685 45.8603 8.97402 46 9.32558 46H19.9302C20.2818 46 20.619 45.8603 20.8676 45.6117C21.1162 45.3632 21.2558 45.026 21.2558 44.6744C21.2558 44.3229 21.1162 43.9857 20.8676 43.7371C20.619 43.4885 20.2818 43.3488 19.9302 43.3488H12.5247L22.6344 33.2391C22.8686 32.9878 22.996 32.6554 22.99 32.312C22.9839 31.9686 22.8448 31.6409 22.6019 31.3981C22.3591 31.1552 22.0314 31.0161 21.688 31.01C21.3446 31.004 21.0122 31.1314 20.7609 31.3656ZM44.6744 32.7442C44.3229 32.7442 43.9857 32.8838 43.7371 33.1324C43.4885 33.381 43.3488 33.7182 43.3488 34.0698V41.4753L33.2391 31.3656C32.9878 31.1314 32.6554 31.004 32.312 31.01C31.9686 31.0161 31.6409 31.1552 31.3981 31.3981C31.1552 31.6409 31.0161 31.9686 31.01 32.312C31.004 32.6554 31.1314 32.9878 31.3656 33.2391L41.4753 43.3488H34.0698C33.7182 43.3488 33.381 43.4885 33.1324 43.7371C32.8838 43.9857 32.7442 44.3229 32.7442 44.6744C32.7442 45.026 32.8838 45.3632 33.1324 45.6117C33.381 45.8603 33.7182 46 34.0698 46H44.6744C45.026 46 45.3632 45.8603 45.6117 45.6117C45.8603 45.3632 46 45.026 46 44.6744V34.0698C46 33.7182 45.8603 33.381 45.6117 33.1324C45.3632 32.8838 45.026 32.7442 44.6744 32.7442ZM12.5247 10.6512H19.9302C20.2818 10.6512 20.619 10.5115 20.8676 10.2629C21.1162 10.0143 21.2558 9.67715 21.2558 9.32558C21.2558 8.97402 21.1162 8.63685 20.8676 8.38825C20.619 8.13966 20.2818 8 19.9302 8H9.32558C8.97402 8 8.63685 8.13966 8.38825 8.38825C8.13966 8.63685 8 8.97402 8 9.32558V19.9302C8 20.2818 8.13966 20.619 8.38825 20.8676C8.63685 21.1162 8.97402 21.2558 9.32558 21.2558C9.67715 21.2558 10.0143 21.1162 10.2629 20.8676C10.5115 20.619 10.6512 20.2818 10.6512 19.9302V12.5247L20.7609 22.6344C21.0122 22.8686 21.3446 22.996 21.688 22.99C22.0314 22.9839 22.3591 22.8448 22.6019 22.6019C22.8448 22.3591 22.9839 22.0314 22.99 21.688C22.996 21.3446 22.8686 21.0122 22.6344 20.7609L12.5247 10.6512Z" fill="#A5A6A6"/>
</svg>
