<svg width="55" height="55" viewBox="0 0 55 55" fill="none" xmlns="http://www.w3.org/2000/svg">
<path d="M17.7647 29.9921C18.0923 29.9921 18.4065 29.8619 18.6382 29.6303C18.8699 29.3986 19 29.0844 19 28.7568V25.5882H33V29.1479C33 29.4756 33.1301 29.7898 33.3618 30.0214C33.5935 30.2531 33.9077 30.3832 34.2353 30.3832C34.5629 30.3832 34.8771 30.2531 35.1088 30.0214C35.3404 29.7898 35.4706 29.4756 35.4706 29.1479V6.23529C35.4706 5.90767 35.3404 5.59347 35.1088 5.36181C34.8771 5.13015 34.5629 5 34.2353 5C33.9077 5 33.5935 5.13015 33.3618 5.36181C33.1301 5.59347 33 5.90767 33 6.23529V9.94118H19V6.23529C19 5.90767 18.8699 5.59347 18.6382 5.36181C18.4065 5.13015 18.0923 5 17.7647 5C17.4371 5 17.1229 5.13015 16.8912 5.36181C16.6596 5.59347 16.5294 5.90767 16.5294 6.23529V28.7568C16.5294 29.0844 16.6596 29.3986 16.8912 29.6303C17.1229 29.8619 17.4371 29.9921 17.7647 29.9921ZM19 23.1176V19H33V23.1176H19ZM33 12.4118V16.5294H19V12.4118H33ZM5 34.2353C5 33.9077 5.13015 33.5935 5.36181 33.3618C5.59347 33.1301 5.90767 33 6.23529 33C9.08059 33 10.5588 33.9862 11.8621 34.8529C13.0212 35.625 14.0197 36.2941 16.1176 36.2941C18.2156 36.2941 19.2059 35.6271 20.3732 34.8529C21.6765 33.9841 23.1547 33 25.9979 33C28.8412 33 30.3215 33.9862 31.6247 34.8529C32.7838 35.625 33.7844 36.2941 35.8824 36.2941C37.9803 36.2941 38.9706 35.6271 40.1379 34.8529C41.4412 33.9841 42.9194 33 45.7647 33C46.0923 33 46.4065 33.1301 46.6382 33.3618C46.8699 33.5935 47 33.9077 47 34.2353C47 34.5629 46.8699 34.8771 46.6382 35.1088C46.4065 35.3404 46.0923 35.4706 45.7647 35.4706C43.6688 35.4706 42.6765 36.1376 41.5091 36.9118C40.2038 37.7806 38.7256 38.7647 35.8824 38.7647C33.0391 38.7647 31.5588 37.7785 30.2556 36.9118C29.0965 36.1397 28.0959 35.4706 25.9979 35.4706C23.9 35.4706 22.9097 36.1376 21.7424 36.9118C20.4391 37.7806 18.9609 38.7647 16.1176 38.7647C13.2744 38.7647 11.7941 37.7785 10.4909 36.9118C9.32353 36.1376 8.33118 35.4706 6.23529 35.4706C5.90767 35.4706 5.59347 35.3404 5.36181 35.1088C5.13015 34.8771 5 34.5629 5 34.2353ZM47 42.4706C47 42.7982 46.8699 43.1124 46.6382 43.3441C46.4065 43.5757 46.0923 43.7059 45.7647 43.7059C43.6688 43.7059 42.6765 44.3729 41.5091 45.1471C40.2038 46.0159 38.7256 47 35.8824 47C33.0391 47 31.5588 46.0138 30.2556 45.1471C29.0965 44.375 28.0959 43.7059 25.9979 43.7059C23.9 43.7059 22.9097 44.3729 21.7424 45.1471C20.4391 46.0159 18.9609 47 16.1176 47C13.2744 47 11.7941 46.0138 10.4909 45.1471C9.32353 44.3729 8.33118 43.7059 6.23529 43.7059C5.90767 43.7059 5.59347 43.5757 5.36181 43.3441C5.13015 43.1124 5 42.7982 5 42.4706C5 42.143 5.13015 41.8288 5.36181 41.5971C5.59347 41.3654 5.90767 41.2353 6.23529 41.2353C9.08059 41.2353 10.5588 42.2215 11.8621 43.0882C13.0212 43.8603 14.0197 44.5294 16.1176 44.5294C18.2156 44.5294 19.2059 43.8624 20.3732 43.0882C21.6765 42.2194 23.1547 41.2353 25.9979 41.2353C28.8412 41.2353 30.3215 42.2215 31.6247 43.0882C32.7838 43.8603 33.7844 44.5294 35.8824 44.5294C37.9803 44.5294 38.9706 43.8624 40.1379 43.0882C41.4412 42.2194 42.9194 41.2353 45.7647 41.2353C46.0923 41.2353 46.4065 41.3654 46.6382 41.5971C46.8699 41.8288 47 42.143 47 42.4706Z" fill="#A5A6A6"/>
</svg>
