<svg width="44" height="44" viewBox="0 0 44 44" fill="none" xmlns="http://www.w3.org/2000/svg">
<path d="M36.4301 30C37.7225 30 39.0575 30.6852 39.9704 31.2576C40.4481 31.5571 40.856 31.8547 41.1442 32.0779C41.2886 32.1898 41.4043 32.284 41.4854 32.3513C41.5258 32.3849 41.5577 32.4123 41.5803 32.4316C41.5916 32.4413 41.6005 32.4498 41.607 32.4555C41.6102 32.4582 41.6129 32.4603 41.6149 32.462C41.6159 32.4629 41.6172 32.4636 41.6179 32.4642L41.6189 32.4653H41.6199C42.0566 32.8486 42.1275 33.5486 41.7781 34.0278C41.4287 34.507 40.7908 34.5836 40.3541 34.2003L40.3521 34.1992C40.3489 34.1965 40.343 34.1917 40.3353 34.1851C40.3198 34.1719 40.2955 34.1513 40.2631 34.1243C40.1978 34.0702 40.0997 33.9907 39.9753 33.8943C39.7256 33.7009 39.3739 33.4429 38.9656 33.1868C38.1064 32.6481 37.1629 32.2222 36.4301 32.2222C35.2066 32.2222 34.2815 32.7656 33.1241 33.4711C32.0031 34.1545 30.6496 35 28.8352 35C27.2412 35 25.9797 34.1114 24.9676 33.4581C23.8954 32.7661 22.9662 32.2222 21.7467 32.2222C20.5469 32.2222 19.7559 32.7448 18.7394 33.4418C17.7307 34.1336 16.4962 35 14.6582 35C12.7836 35 11.6214 34.1224 10.6926 33.4115C9.77101 32.7059 9.13542 32.2222 8.07597 32.2222C7.32137 32.2222 6.2425 32.6649 5.23779 33.2161C4.76044 33.478 4.34069 33.741 4.04022 33.9388C3.89051 34.0374 3.77152 34.1192 3.69113 34.1753C3.65096 34.2034 3.6199 34.2252 3.60015 34.2394C3.59062 34.2462 3.58373 34.2514 3.57938 34.2546L3.48544 34.3164C3.03181 34.5798 2.461 34.4283 2.17018 33.9497C1.85996 33.4391 1.98569 32.7492 2.45103 32.4089H2.45202L2.45499 32.4056C2.45715 32.404 2.46027 32.4017 2.46389 32.3991C2.47111 32.3939 2.48173 32.3866 2.49455 32.3774C2.52024 32.359 2.55677 32.3329 2.60333 32.3003C2.69696 32.235 2.8313 32.1431 2.9979 32.0334C3.33032 31.8146 3.79672 31.5219 4.33194 31.2283C5.35253 30.6684 6.80527 30 8.07597 30C9.8436 30 10.959 30.9052 11.8516 31.5885C12.7372 32.2665 13.4528 32.7778 14.6582 32.7778C15.858 32.7778 16.649 32.2552 17.6654 31.5582C18.6741 30.8664 19.9087 30 21.7467 30C23.565 30 24.9145 30.8451 25.9941 31.5419C27.1338 32.2775 27.8977 32.7778 28.8352 32.7778C30.0587 32.7778 30.9838 32.2344 32.1411 31.5289C33.2622 30.8455 34.6156 30 36.4301 30Z" fill="#A6A6A5"/>
<path d="M36.4301 36C37.7225 36 39.0575 36.6852 39.9704 37.2576C40.4481 37.5571 40.856 37.8547 41.1442 38.0779C41.2886 38.1898 41.4043 38.284 41.4854 38.3513C41.5258 38.3849 41.5577 38.4123 41.5803 38.4316C41.5916 38.4413 41.6005 38.4498 41.607 38.4555C41.6102 38.4582 41.6129 38.4603 41.6149 38.462C41.6159 38.4629 41.6172 38.4636 41.6179 38.4642L41.6189 38.4653H41.6199C42.0566 38.8486 42.1275 39.5486 41.7781 40.0278C41.4287 40.507 40.7908 40.5836 40.3541 40.2003L40.3521 40.1992C40.3489 40.1965 40.343 40.1917 40.3353 40.1851C40.3198 40.1719 40.2955 40.1513 40.2631 40.1243C40.1978 40.0702 40.0997 39.9907 39.9753 39.8943C39.7256 39.7009 39.3739 39.4429 38.9656 39.1868C38.1064 38.6481 37.1629 38.2222 36.4301 38.2222C35.2066 38.2222 34.2815 38.7656 33.1241 39.4711C32.0031 40.1545 30.6496 41 28.8352 41C27.2412 41 25.9797 40.1114 24.9676 39.4581C23.8954 38.7661 22.9662 38.2222 21.7467 38.2222C20.5469 38.2222 19.7559 38.7448 18.7394 39.4418C17.7307 40.1336 16.4962 41 14.6582 41C12.7836 41 11.6214 40.1224 10.6926 39.4115C9.77101 38.7059 9.13542 38.2222 8.07597 38.2222C7.32137 38.2222 6.2425 38.6649 5.23779 39.2161C4.76044 39.478 4.34069 39.741 4.04022 39.9388C3.89051 40.0374 3.77152 40.1192 3.69113 40.1753C3.65096 40.2034 3.6199 40.2252 3.60015 40.2394C3.59062 40.2462 3.58373 40.2514 3.57938 40.2546L3.48544 40.3164C3.03181 40.5798 2.461 40.4283 2.17018 39.9497C1.85996 39.4391 1.98569 38.7492 2.45103 38.4089H2.45202L2.45499 38.4056C2.45715 38.404 2.46027 38.4017 2.46389 38.3991C2.47111 38.3939 2.48173 38.3866 2.49455 38.3774C2.52024 38.359 2.55677 38.3329 2.60333 38.3003C2.69696 38.235 2.8313 38.1431 2.9979 38.0334C3.33032 37.8146 3.79672 37.5219 4.33194 37.2283C5.35253 36.6684 6.80527 36 8.07597 36C9.8436 36 10.959 36.9052 11.8516 37.5885C12.7372 38.2665 13.4528 38.7778 14.6582 38.7778C15.858 38.7778 16.649 38.2552 17.6654 37.5582C18.6741 36.8664 19.9087 36 21.7467 36C23.565 36 24.9145 36.8451 25.9941 37.5419C27.1338 38.2775 27.8977 38.7778 28.8352 38.7778C30.0587 38.7778 30.9838 38.2344 32.1411 37.5289C33.2622 36.8455 34.6156 36 36.4301 36Z" fill="#A6A6A5"/>
<path d="M29.7073 18.9287C30.0977 19.3191 30.0975 19.9522 29.7073 20.3428L23.343 26.707C22.9525 27.0976 22.3195 27.0976 21.9289 26.707L15.5647 20.3428C15.1744 19.9522 15.1743 19.3191 15.5647 18.9287C15.9551 18.5383 16.5882 18.5385 16.9787 18.9287L21.636 23.5859V6C21.636 5.44772 22.0837 5 22.636 5C23.1883 5 23.636 5.44772 23.636 6V23.5859L28.2932 18.9287C28.6837 18.5385 29.3168 18.5383 29.7073 18.9287Z" fill="#A6A6A5"/>
</svg>
