<svg width="25" height="26" viewBox="0 0 25 26" fill="none" xmlns="http://www.w3.org/2000/svg">
<path d="M24.7185 23.8594L18.707 17.8491C20.4494 15.7573 21.3182 13.0742 21.1328 10.3581C20.9473 7.64199 19.7219 5.10193 17.7114 3.26632C15.7009 1.43071 13.0601 0.440878 10.3383 0.502734C7.61659 0.56459 5.02348 1.67337 3.09843 3.59843C1.17337 5.52348 0.0645897 8.11659 0.00273384 10.8383C-0.059122 13.5601 0.930711 16.2009 2.76632 18.2114C4.60193 20.2219 7.14199 21.4473 9.85811 21.6328C12.5742 21.8182 15.2573 20.9494 17.3491 19.207L23.3594 25.2185C23.4487 25.3078 23.5546 25.3785 23.6712 25.4268C23.7878 25.4751 23.9128 25.5 24.039 25.5C24.1652 25.5 24.2901 25.4751 24.4067 25.4268C24.5233 25.3785 24.6293 25.3078 24.7185 25.2185C24.8078 25.1293 24.8785 25.0233 24.9268 24.9067C24.9751 24.7901 25 24.6652 25 24.539C25 24.4128 24.9751 24.2878 24.9268 24.1712C24.8785 24.0546 24.8078 23.9487 24.7185 23.8594ZM1.94753 11.092C1.94753 9.38229 2.45452 7.71097 3.40439 6.28939C4.35426 4.86782 5.70434 3.75983 7.28391 3.10555C8.86348 2.45127 10.6016 2.28008 12.2785 2.61363C13.9553 2.94718 15.4956 3.77049 16.7046 4.97944C17.9135 6.18839 18.7368 7.72869 19.0704 9.40555C19.4039 11.0824 19.2327 12.8205 18.5785 14.4001C17.9242 15.9797 16.8162 17.3298 15.3946 18.2796C13.973 19.2295 12.3017 19.7365 10.592 19.7365C8.30013 19.7339 6.10285 18.8224 4.48225 17.2018C2.86164 15.5812 1.95007 13.3839 1.94753 11.092Z" fill="white"/>
</svg>
