<svg width="179" height="57" viewBox="0 0 179 57" fill="none" xmlns="http://www.w3.org/2000/svg">
<g clip-path="url(#clip0_25_2351)">
<path d="M93.3385 16.0767H88.1832L85.2757 20.8063H90.4283L93.3385 16.0767ZM106.712 28.5212C104.011 28.7453 99.2397 31.1689 96.641 36.4644C94.0423 41.7599 94.0328 45.029 94.0328 45.029C94.0328 45.029 95.4033 43.5216 97.5044 41.9434C99.6055 40.3651 101.169 39.8044 101.169 39.8044C101.169 39.8044 101.559 37.8601 102.529 35.8267C103.473 33.8487 104.97 31.7893 106.823 31.3221C110.578 30.3737 108.78 37.2501 106.022 41.734C104.539 44.1438 99.2803 51.0695 94.753 51.0695C90.2257 51.0695 89.3519 46.6903 90.3067 42.5958C91.2607 38.5022 92.5812 33.301 99.1863 23.8504C105.791 14.3998 112.941 8.79713 117.079 6.4427C121.33 4.02598 123.061 5.08508 123.061 5.08508C123.061 5.08508 117.635 8.43804 114.548 12.472C111.597 16.3277 109.836 20.6662 111.205 22.7922C112.509 24.8178 117.107 24.8558 122.169 17.5235C127.165 10.2854 125.903 5.98151 125.903 5.98151C125.903 5.98151 126.507 5.78423 126.913 5.72971C129.349 5.40437 131.301 6.049 134.323 7.60391C137.489 9.23323 140.527 11.8464 144.69 13.9845C145.943 12.607 147.338 11.1438 148.805 9.71605C143.193 6.97572 138.933 3.06985 133.43 2.69518C128.639 2.36984 124.862 4.12116 124.862 4.12116C124.862 4.12116 123.401 2.12496 118.894 2.77652C114.386 3.42894 100.499 9.254 88.6835 28.2365C78.0004 45.3993 83.0341 55.2349 90.713 55.1224C99.0371 54.9996 106.956 45.7125 109.636 38.0539C112.315 30.3954 109.148 28.3196 106.712 28.5212ZM123.053 12.5732C121.654 15.9945 119.594 18.3853 117.567 20.211C114.968 22.5533 113.541 22.4746 112.923 22.0039C111.311 20.7717 113.475 16.1252 117.231 11.9701C120.972 7.83148 124.192 6.54394 124.192 6.54394C124.192 6.5924 124.728 8.47092 123.053 12.5732ZM169.407 7.58401C165.598 10.0423 160.317 12.2686 155.248 11.778C153.966 13.1131 152.591 14.6516 151.212 16.3346C160.01 18.0755 167.705 12.6078 171.802 7.94916C174.357 5.04441 175.619 2.45117 175.619 2.45117C175.619 2.45117 173.179 5.14911 169.407 7.58401Z" fill="#003363"/>
<path d="M165.244 29.1538H159.823L158.943 30.5192C158.943 30.5192 157.837 28.5178 155.964 28.5498C152.756 28.6052 149.545 31.0626 145.814 35.3249C143.079 38.4477 138.545 45.4002 138.545 45.4002C138.545 45.4002 135.067 50.7779 133.307 50.3566C130.307 49.6375 135.825 38.5022 135.825 38.5022C135.825 38.5022 138.725 36.705 142.484 33.5321C144.851 31.535 147.574 28.7877 150.077 26.2412C152.353 23.9249 155.036 20.7796 157.585 17.334C156.932 17.4379 156.263 17.508 155.581 17.5417C153.294 20.5667 150.853 23.2742 148.777 25.4261C145.687 28.6294 142.844 31.2503 140.778 32.922C138.799 34.5228 137.529 35.2436 137.529 35.2436C137.529 35.2436 141.305 27.4639 147.599 18.8682C153.893 10.2734 162.705 2.28857 162.014 6.07677C161.817 7.16442 161.143 8.72452 160.126 10.5762C160.842 10.4265 161.537 10.2396 162.208 10.0268C163.724 6.88667 164.241 4.29862 163.11 3.55102C158.492 0.500042 146.746 13.1245 140.858 20.4568C134.97 27.7892 129.642 38.9946 129.642 38.9946C129.642 38.9946 128.72 39.3822 127.702 39.576C127.059 39.6989 126.785 39.6721 126.68 39.6306C126.627 39.6089 126.621 39.5726 126.621 39.5726C126.621 39.5726 131.8 29.859 126.498 28.5706C121.38 27.328 112.514 36.8253 109.361 43.4317C107.198 47.9641 105.978 53.6697 109.687 55.0282C113.705 56.5 120.529 49.1417 122.133 47.0036C123.738 44.8646 125.74 41.3083 125.74 41.3083C125.74 41.3083 126.72 41.2564 127.256 41.1777C128.28 41.0262 128.76 40.8999 128.76 40.8999C128.76 40.8999 128.096 42.6452 127.377 44.8577C126.038 48.9834 124.83 54.8863 129.652 55.164C132.724 55.3397 137.232 49.7734 137.232 49.7734C137.232 49.7734 136.019 54.7228 140.006 55.164C142.95 55.4894 147.234 50.9268 147.234 50.9268C147.234 50.9268 146.301 54.8577 149.285 55.2038C151.84 55.5006 155.467 52.4955 158.441 49.1893C161.688 45.5793 164.179 41.6259 164.179 41.6259H162.291C162.291 41.6259 158.112 47.9892 155.178 49.692C152.769 51.0903 153.594 48.8501 154.325 47.6759C155.13 46.3806 165.242 29.1538 165.242 29.1546L165.244 29.1538ZM123.943 41.1387C123.869 41.3092 122.512 43.6775 121.06 45.5395C119.497 47.5461 116.634 50.566 114.913 49.9274C112.223 48.9288 115.183 43.0493 117.119 40.1973C119.054 37.3454 119.274 37.1524 119.328 37.078C119.383 37.0036 119.437 36.9352 119.485 37.0235C119.532 37.1117 120.148 38.2833 121.364 39.3C122.585 40.321 123.76 40.8601 123.855 40.8939C123.95 40.9276 124.018 40.9683 123.943 41.1379V41.1387ZM125.153 39.0197C124.983 39.3035 124.862 39.3173 124.509 39.223C123.888 39.0543 121.315 37.8611 121.335 35.2142C121.353 32.6348 124.977 30.1082 126.398 31.188C127.725 32.1952 127.091 34.7703 126.591 36.0838C126.091 37.3964 125.264 38.8336 125.153 39.0197ZM149.779 45.4002C149.064 46.3849 148.465 47.2744 147.925 47.8992C146.771 49.236 146.018 49.8582 145.347 50.0226C145.009 50.1048 144.59 50.0849 144.312 49.9161C143.327 49.3148 144.017 46.9733 145.732 43.8254C147.301 40.9484 149.114 38.0696 152.094 34.7556C155.086 31.4286 156.23 31.2685 157.068 31.3066C157.772 31.3369 157.872 32.0801 157.872 32.0801C157.872 32.0801 157.822 32.2523 157.71 32.447C156.723 34.1646 151.748 42.6928 149.779 45.4002H149.779ZM69.8187 49.5622C66.5317 47.5245 62.3148 46.2171 57.4701 46.1747C44.9896 46.0656 31.4008 52.1486 22.1969 52.2308C11.3414 52.3259 10.8006 43.9474 11.6053 39.3467C13.3372 29.435 20.3451 19.9792 24.8509 14.9935C29.3575 10.0077 34.0797 6.13907 38.0059 5.15005C41.932 4.16104 41.5629 7.15663 41.0824 7.56591C40.5865 7.57629 39.6351 7.68359 39.0952 8.05825C38.25 8.64318 37.1209 9.7144 37.0502 11.4129C36.9286 14.0295 40.2993 14.4881 42.7359 9.0092C44.3979 5.27206 41.7621 2.73592 39.573 2.49191C36.5706 2.15619 31.9821 3.20317 26.5052 6.73438C16.9727 12.8796 4.2222 26.5259 3.89703 41.6666C3.71159 50.3038 9.33602 55.164 17.0529 55.164C24.7698 55.164 35.2467 50.4232 45.4769 50.302C51.8112 50.2475 55.9107 52.4748 57.9868 56.102C57.9868 56.102 60.0499 52.6591 64.6445 52.4748C69.1899 52.2913 74.1942 53.5693 78.3023 56.4663C76.9318 54.4796 73.0574 51.5697 69.8178 49.5622H69.8187Z" fill="#003363"/>
<path d="M41.397 15.5472C36.1651 14.2095 27.4761 23.1444 23.8148 30.4162C21.5567 34.9018 20.5666 40.5391 24.5867 42.0057C28.6069 43.4724 35.4276 36.1192 37.0319 33.9811C38.6361 31.8422 41.2616 27.5582 41.2616 27.5582C41.2616 27.5582 42.0672 27.4024 42.5951 27.2796C43.1229 27.1567 43.9759 26.9127 43.9759 26.9127C43.9759 26.9127 42.9866 28.6813 42.0939 30.4941C41.0356 32.6434 38.16 39.7984 43.712 41.9443C49.0165 43.9942 56.5677 35.4461 56.9645 35.2843C56.9645 35.2843 54.7168 41.1093 58.2082 42.0057C62.0395 42.9887 66.2382 38.0644 66.2382 38.0644C66.2382 38.0644 65.3541 41.7609 68.3393 42.1078C73.6851 42.7282 83.1408 29.011 83.1408 29.011H81.2519C81.2519 29.011 76.44 35.2228 74.1258 36.506C71.8117 37.7892 72.6441 35.5092 73.2728 34.4899C74.075 33.1929 84.2974 16.0569 84.2974 16.0569H78.8765L78.2478 17.0545C78.2478 17.0545 77.1308 15.3439 75.2635 15.4659C69.8305 15.8215 63.366 24.5089 60.5232 28.3378C57.6812 32.1675 51.5496 39.4791 48.3213 38.176C44.8031 36.7552 48.3014 30.2327 50.6155 26.403C53.1349 22.2341 57.6002 18.105 59.3657 18.073C61.5384 18.0323 60.6854 20.0077 60.6854 20.0077C60.6854 20.0077 59.0612 19.8044 57.8839 21.291C57.0507 22.3423 56.3607 23.8773 57.1525 24.7123C58.4316 26.0612 60.0971 24.6915 61.0916 23.1634C64.1923 18.4018 61.9239 15.8925 59.4882 15.5265C54.2993 14.7451 49.5193 21.4329 45.8855 23.9179C43.3644 25.6407 42.3113 25.5066 42.3113 25.5066C42.3113 25.5066 46.6851 16.8988 41.3979 15.5464L41.397 15.5472ZM64.8875 30.9457C66.4564 28.0678 68.5937 25.2894 71.3753 21.8067C74.1569 18.3239 75.5412 18.0418 76.3787 18.0799C77.0834 18.1111 77.1834 18.8535 77.1834 18.8535C77.1834 18.8535 71.1398 29.4177 68.9473 32.4323C68.2314 33.417 67.6191 34.2511 67.0791 34.8767C65.9251 36.2136 65.0867 36.8599 64.4399 37.0209C64.1018 37.1039 63.6826 37.0832 63.404 36.9136C62.419 36.3122 63.1702 34.0928 64.8866 30.9457H64.8875ZM39.2382 27.5175C39.1631 27.6871 37.4373 30.5503 35.9865 32.4124C34.4236 34.419 31.5351 37.4509 29.8144 36.8123C27.1242 35.8138 29.9938 29.9749 31.9293 27.1238C33.8647 24.2718 34.1485 23.905 34.2037 23.8314C34.258 23.7561 34.3115 23.6878 34.359 23.7769C34.4064 23.8652 35.0222 25.1354 36.3557 25.9903C37.6891 26.846 39.0562 27.2397 39.1511 27.2735C39.2459 27.3072 39.3141 27.3488 39.239 27.5175H39.2382ZM41.4885 23.0605C40.9882 24.3748 40.5414 25.2029 40.4491 25.3984C40.3008 25.7117 39.929 25.6113 39.929 25.6113C39.5056 25.5923 36.2134 24.8386 36.2323 22.1917C36.2504 19.6123 39.8756 17.0857 41.2961 18.1656C42.6227 19.1728 41.9887 21.7478 41.4885 23.0605ZM161.166 52.0239C160.85 51.844 160.498 51.7548 160.11 51.7548C159.723 51.7548 159.371 51.8448 159.055 52.0239C158.738 52.2039 158.49 52.4479 158.308 52.7586C158.127 53.0683 158.035 53.4058 158.035 53.7692C158.035 54.1326 158.126 54.4761 158.308 54.7842C158.489 55.0914 158.738 55.3354 159.055 55.5145C159.371 55.6945 159.723 55.7836 160.11 55.7836C160.498 55.7836 160.85 55.6936 161.166 55.5145C161.483 55.3354 161.731 55.0914 161.913 54.7842C162.094 54.477 162.186 54.1387 162.186 53.7692C162.186 53.3997 162.095 53.0683 161.913 52.7586C161.732 52.4488 161.483 52.2039 161.166 52.0239ZM161.538 54.6033C161.401 54.8491 161.207 55.042 160.96 55.1831C160.712 55.3232 160.429 55.3933 160.11 55.3933C159.792 55.3933 159.508 55.3232 159.261 55.1831C159.013 55.0429 158.821 54.8499 158.683 54.6033C158.546 54.3576 158.477 54.079 158.477 53.7692C158.477 53.4594 158.546 53.1886 158.683 52.9429C158.82 52.6971 159.014 52.5042 159.264 52.3631C159.514 52.2221 159.796 52.1529 160.11 52.1529C160.424 52.1529 160.706 52.2229 160.956 52.3631C161.207 52.5033 161.401 52.6963 161.538 52.9429C161.675 53.1886 161.744 53.4646 161.744 53.7692C161.744 54.0738 161.675 54.3576 161.538 54.6033Z" fill="#003363"/>
<path d="M160.889 53.7363C160.947 53.6402 160.976 53.5329 160.976 53.4153C160.976 53.2526 160.924 53.1167 160.819 53.006C160.713 52.8952 160.572 52.8398 160.396 52.8398H159.344V54.663H159.807V53.9985H160.16L160.587 54.663H161.116L160.638 53.9543C160.746 53.905 160.83 53.8323 160.889 53.7363ZM160.447 53.5442C160.412 53.5762 160.366 53.5918 160.307 53.5918H159.807V53.2379H160.307C160.366 53.2379 160.412 53.2543 160.447 53.2855C160.481 53.3175 160.499 53.3607 160.499 53.4144C160.499 53.468 160.481 53.5113 160.447 53.5433V53.5442Z" fill="#003363"/>
</g>
<defs>
<clipPath id="clip0_25_2351">
<rect width="178" height="56" fill="white" transform="translate(0.666016 0.5)"/>
</clipPath>
</defs>
</svg>
