<svg width="238" height="66" viewBox="0 0 238 66" fill="none" xmlns="http://www.w3.org/2000/svg">
<g clip-path="url(#clip0_25_2367)">
<path d="M236.207 57.0476C236.207 53.4351 233.617 50.7899 230.051 50.7899C226.49 50.7899 223.898 53.4351 223.898 57.0476C223.898 60.6543 226.49 63.2952 230.051 63.2952C233.617 63.2952 236.207 60.6499 236.207 57.0476ZM228.433 57.3686V61.4559H227.099V52.443H230.415C232.358 52.443 233.25 53.2827 233.25 54.9197C233.25 55.928 232.561 56.7267 231.674 56.8425V56.8806C232.444 57.0022 232.727 57.6822 232.886 58.9264C233.007 59.7325 233.169 61.1306 233.459 61.4589H231.88C231.513 60.6118 231.55 59.413 231.267 58.4091C231.033 57.6456 230.621 57.3671 229.737 57.3671H228.44V57.3715L228.433 57.3686ZM230.088 56.2035C231.384 56.2035 231.754 55.5206 231.754 54.9182C231.754 54.206 231.384 53.6432 230.088 53.6432H228.433V56.2064H230.088V56.2035ZM222.43 57.0476C222.43 52.5969 226.001 49.5881 230.045 49.5881C234.1 49.5881 237.667 52.5969 237.667 57.0476C237.667 61.4896 234.102 64.5013 230.045 64.5013C226.001 64.5013 222.43 61.4896 222.43 57.0476Z" fill="#0961B4"/>
<path d="M196.039 63.2016L187.26 53.4603L178.558 63.2016H160.247L178.143 43.3086L160.247 23.4097H179.13L187.998 33.0763L196.531 23.4097H214.753L196.946 43.2251L215.001 63.2016H196.039ZM125.086 63.2016V0.516846H160.247V14.4891H139.98V23.4097H160.247V36.8544H139.98V49.1941H160.247V63.2016H125.086Z" fill="#0961B4"/>
<path d="M110.247 0.516846V26.1708H110.082C106.799 22.4366 102.694 21.1353 97.9349 21.1353C88.1825 21.1353 80.8357 27.6993 78.2569 36.3708C75.3152 26.8142 67.7298 20.9565 56.4844 20.9565C47.3497 20.9565 40.1391 25.0116 36.3724 31.6211V23.4083H17.4942V14.4906H38.098V0.519781H0.666016V63.2016H17.4942V36.8544H34.2675C33.7509 38.8805 33.4926 40.9626 33.4988 43.0521C33.4988 56.1216 43.5933 65.3061 56.4814 65.3061C67.3151 65.3061 74.4605 60.2691 78.2361 51.0993H63.8135C61.8642 53.8589 60.383 54.6737 56.4829 54.6737C51.9622 54.6737 48.0607 50.7696 48.0607 46.1473H77.4274C78.7012 56.5305 86.8776 65.4834 98.0993 65.4834C102.94 65.4834 107.372 63.1283 110.081 59.1494H110.244V63.2104H125.081V0.519781H110.247V0.516846ZM48.5288 37.042C49.4664 33.0587 52.5873 30.456 56.4829 30.456C60.7725 30.456 63.735 32.9781 64.5126 37.042H48.5288ZM101.242 53.6625C95.7753 53.6625 92.3774 48.6226 92.3774 43.3584C92.3774 37.7308 95.3339 32.3245 101.242 32.3245C107.373 32.3245 109.816 37.7338 109.816 43.3584C109.816 48.69 107.23 53.6625 101.242 53.6625Z" fill="#003363"/>
</g>
<defs>
<clipPath id="clip0_25_2367">
<rect width="237" height="65" fill="white" transform="translate(0.666016 0.5)"/>
</clipPath>
</defs>
</svg>
