<svg width="268" height="56" viewBox="0 0 268 56" fill="none" xmlns="http://www.w3.org/2000/svg">
<path fill-rule="evenodd" clip-rule="evenodd" d="M28.1287 0.5C12.9624 0.5 0.666016 12.8116 0.666016 28C0.666016 43.1884 12.9624 55.5 28.1287 55.5C43.2964 55.5 55.5928 43.1884 55.5928 28C55.5928 12.8116 43.2964 0.5 28.1287 0.5ZM28.1315 54.0338C21.8564 54.0338 15.9836 51.9387 11.608 48.093C7.35079 44.3488 4.04408 38.3995 3.22775 32.0758C5.16297 44.1016 15.5769 53.2878 28.1315 53.2878C42.0634 53.2878 53.3579 41.9779 53.3579 28.0272C53.3579 22.2393 51.1986 16.5716 47.9276 12.3129C51.2414 14.8724 54.1028 22.1622 54.1028 28.0272C54.1028 42.3895 42.4744 54.0338 28.1315 54.0338ZM25.7468 26.0407L27.9674 3.23957L28.1287 3.23814H28.1858L28.4041 27.2326L32.226 24.9446L28.3813 3.241C41.9221 3.37676 52.8598 14.4079 52.8598 28C52.8598 32.3673 51.7295 36.4688 49.7486 40.0301L32.5843 25.6491L30.9587 26.5723L49.6316 40.2359L49.4889 40.4817L28.4898 28.3844V32.6517L49.3447 40.7232C45.0219 47.9344 37.1383 52.7619 28.1273 52.7619C19.1262 52.7619 11.2483 47.9444 6.92407 40.7446L27.7662 32.6074V28.3415L6.74283 40.4388L6.60439 40.1987L25.2116 26.5723L23.5861 25.6491L6.46881 39.9543C4.44994 36.2947 3.39404 32.1809 3.40044 28C3.40044 14.5151 14.1654 3.54825 27.5593 3.24385L24.2097 25.1175L25.7468 26.0407ZM28.1287 1.97768C13.7844 1.97768 2.15739 13.6219 2.15739 27.9843C2.15739 33.8178 4.271 39.3355 7.49493 44.1016C8.58813 46.1494 9.77124 47.4171 11.3497 49.0905C5.1644 44.143 1.16266 36.5274 1.16266 27.9828C1.16266 13.0703 13.2349 0.980173 28.1287 0.980173C43.0224 0.980173 55.3245 13.5962 54.8821 27.9828C54.5082 13.9463 42.2361 1.97768 28.1287 1.97768ZM148.764 29.8207C148.764 24.9975 146.635 21.0875 141.96 21.0875C137.62 21.0875 135.152 24.9975 135.152 29.8207C135.152 34.6438 137.214 38.5538 141.96 38.5538C146.568 38.5538 147.922 36.2673 148.63 32.6102L147.042 32.6045C146.908 33.9607 146.024 37.0161 142.638 37.0833C138.774 37.1619 138.505 32.1972 138.57 29.8221L138.637 28.4645C138.637 26.9725 138.503 22.5609 142.094 22.5609C144.94 22.5609 145.346 26.2265 145.346 28.4645H138.637L138.57 29.8221L148.764 29.8207ZM68.5956 15.0782L68.5271 16.1643H69.5432C70.2882 16.1643 71.2386 16.2314 71.2386 17.1818L70.9004 35.5742C70.9004 36.253 70.5607 36.999 69.205 36.999H68.1888L68.1203 38.0851H74.9649V36.999H73.8132C72.9312 36.999 72.3219 36.7275 72.3219 35.5742L72.6601 17.9292L79.9799 36.9304H80.7249L88.1119 17.7248L88.4515 35.5742C88.4515 36.1844 87.8407 36.999 86.8916 36.999H85.4688V38.0851H94.0759V36.999H93.0598C92.3148 36.999 91.4328 36.5917 91.4328 35.6413L91.0932 17.4533C91.0932 16.8417 91.7711 16.1643 92.449 16.1643H93.7363V15.0782H87.5681L81.1973 31.7728L74.8265 15.0782H68.5956ZM116.271 38.0994V37.2176H115.593C114.984 37.2176 113.899 37.0133 113.899 35.7914V26.901C113.899 24.1186 115.322 23.1011 116.745 23.1011C117.287 23.1011 117.627 23.3726 117.49 24.3901C117.354 25.4076 118.235 26.0864 118.981 26.0193C119.728 25.9521 120.677 25.8149 120.54 23.9156C120.403 22.0164 119.321 21.1332 117.423 21.1332C115.931 21.1332 114.711 22.0836 114.373 22.5594C113.979 23.1125 113.491 22.8981 113.424 22.2879C113.357 21.6777 113.086 21.0675 112.408 21.2704C111.111 21.6855 109.768 21.9361 108.409 22.0164V22.6952C111.255 22.5594 110.985 23.9842 110.985 24.6631V35.7928C110.985 37.0147 109.9 37.2191 109.289 37.2191H108.34V38.1008L116.271 38.0994ZM131.369 22.1664C130.37 21.4362 129.114 21.0175 127.585 21.0175C123.248 21.0175 120.779 24.9274 120.779 29.7521C120.779 34.5752 122.84 38.4624 127.585 38.4852C131.787 38.5067 132.805 36.1315 133.511 32.4731L131.923 32.4659C131.787 33.8221 131.313 36.9447 128.263 37.0133C124.401 37.1004 124.13 32.1258 124.197 29.7521C124.197 28.2587 124.401 22.2851 127.654 22.2851C130.431 22.2851 132.127 24.2543 132.127 26.4937H133.007V20.7931H132.262L131.369 22.1664ZM229.416 37.0819C225.552 37.1605 225.282 32.1958 225.348 29.8207H235.542C235.542 24.9975 233.416 21.0875 228.738 21.0875C224.4 21.0875 221.933 24.9975 221.933 29.8207C221.933 34.6438 223.992 38.5538 228.738 38.5538C233.346 38.5538 234.703 36.2673 235.408 32.6102L233.823 32.6031C233.686 33.9607 232.805 37.0161 229.416 37.0819ZM228.875 22.5594C231.72 22.5594 232.127 26.2251 232.127 28.463H225.418C225.418 26.9711 225.282 22.5594 228.875 22.5594ZM173.698 37.0819C169.835 37.1605 169.565 32.1958 169.631 29.8207H179.825C179.825 24.9975 177.696 21.0875 173.02 21.0875C168.683 21.0875 166.213 24.9975 166.213 29.8207C166.213 34.6438 168.275 38.5538 173.02 38.5538C177.628 38.5538 178.983 36.2673 179.691 32.6102L178.102 32.6031C177.968 33.9607 177.088 37.0161 173.698 37.0819ZM173.154 22.5594C176.003 22.5594 176.407 26.2251 176.407 28.463H169.698C169.698 26.9711 169.565 22.5594 173.154 22.5594ZM101.768 37.0819C97.9064 37.1605 97.6352 32.1958 97.7023 29.8207H107.896C107.896 24.9975 105.767 21.0875 101.092 21.0875C96.7533 21.0875 94.2857 24.9975 94.2857 29.8207C94.2857 34.6438 96.3465 38.5538 101.092 38.5538C105.7 38.5538 107.056 36.2673 107.762 32.6102L106.174 32.6045C106.038 33.9607 105.158 37.0161 101.768 37.0819ZM101.226 22.5594C104.073 22.5594 104.478 26.2251 104.478 28.463H97.7694C97.7694 26.9711 97.6352 22.5594 101.226 22.5594ZM163.524 34.5552V15.6198C163.524 14.8395 163.12 14.1935 162.439 14.3979C161.143 14.8134 159.8 15.064 158.442 15.1439V15.8227C160.407 15.687 160.611 16.2986 160.611 16.9774V22.8138C159.731 21.9992 158.713 21.1847 156.885 21.1847C154.58 21.1847 150.31 23.0168 150.31 29.4634C150.31 37.9479 155.258 38.4895 156.749 38.4895C158.241 38.4895 160.206 37.2691 160.613 36.6231C160.645 36.4874 160.849 36.3173 160.917 36.6231C160.986 37.2348 161.426 38.1494 162.104 37.9465C163.4 37.5317 164.743 37.281 166.101 37.2005V36.5217C163.254 36.6589 163.524 35.2326 163.524 34.5552ZM160.611 32.5188C160.544 36.2501 158.579 37.4048 156.952 37.4048C153.293 37.3377 153.562 31.7728 153.562 29.3962C153.562 27.0196 153.699 22.3379 157.019 22.7452C160.341 23.1525 160.613 26.6809 160.613 28.7846L160.611 32.5188ZM203.309 28.3844V26.8239H194.365V28.3844H203.309ZM182.041 32.3301V38.098H182.785L183.463 36.6046C184.141 37.2162 185.565 38.2337 187.393 38.2337C189.224 38.2337 191.8 37.2162 192.818 35.3169C193.832 33.4163 193.359 30.2937 191.054 29.3433C189.036 28.5116 187.266 27.5155 185.903 26.8324C185.479 26.6301 185.132 26.2964 184.912 25.8806C184.692 25.4648 184.613 24.9892 184.684 24.5244C184.888 23.4383 185.836 22.2851 188.004 22.2165C190.173 22.1493 191.256 23.9814 191.53 26.085H192.274V20.6573H191.596L190.85 21.9464C189.428 20.996 188.817 20.8603 187.53 20.8603C186.243 20.8603 184.074 21.5391 182.853 23.4398C181.634 25.3405 181.973 28.3244 184.888 29.5477C187.801 30.7681 189.158 31.5156 189.97 31.9229C190.784 32.3301 191.258 33.9593 190.717 34.9096C190.173 35.8586 189.158 36.9461 187.531 36.9461C185.905 36.9461 183.331 35.7914 182.721 32.3316L182.041 32.3301ZM216.047 25.6649C217.676 25.2576 219.303 22.3394 219.303 20.3715C219.303 18.4037 218.556 15.0782 213.811 15.0782H203.645V15.9599C204.663 15.9599 206.424 16.1643 206.424 17.8606V34.6238C206.424 35.5742 206.357 37.1347 203.645 37.1347V38.0851H211.983C214.489 38.0851 220.25 37.8807 220.387 31.2312C220.387 28.9904 219.303 26.3437 216.047 25.6649ZM209.338 16.1643H212.728C215.237 16.1643 216.251 17.9949 216.251 20.3715C216.251 23.2897 215.371 25.5291 212.728 25.5291H209.338V16.1643ZM212.795 36.999H209.338V26.6152H213.202C215.439 26.6152 217.405 28.1758 217.405 31.5684C217.405 34.9625 215.369 36.999 212.795 36.999ZM248.067 25.7478V35.7914C248.067 37.0133 246.982 37.2176 246.371 37.2176H245.965V38.0994H253.352V37.2176H252.674C252.063 37.2176 250.978 37.0133 250.978 35.7914V25.8163C250.911 21.269 246.845 21.1332 245.422 21.1332C243.931 21.1332 242.303 22.0836 241.966 22.5594C241.571 23.1125 241.082 22.8981 241.015 22.2879C240.948 21.6777 240.679 21.0675 239.998 21.2704C238.702 21.6855 237.359 21.9361 236 22.0164V22.6952C238.846 22.5594 238.576 23.9842 238.576 24.6631V35.7928C238.576 37.0147 237.492 37.2191 236.881 37.2191H235.933V38.1008H243.861V37.2191H243.183C242.572 37.2191 241.488 37.0147 241.488 35.7928V26.9025C241.488 25.4105 242.032 23.0339 244.81 22.8295C247.592 22.6266 248.067 24.4587 248.067 25.7478ZM254.923 26.0879L256.143 21.4733H267.666L257.77 37.1505H263.055C264.275 37.1505 265.224 36.6746 266.511 33.552H267.055L265.971 38.0994H254.177L264.005 22.4237H259.598C258.514 22.4237 257.296 22.4237 255.601 26.0879H254.923Z" fill="#003363"/>
</svg>
