<svg width="213" height="16" viewBox="0 0 213 16" fill="none" xmlns="http://www.w3.org/2000/svg">
<path d="M151.278 3.50488H129.107C128.587 3.50488 128.399 4.01191 128.398 4.45703V11.7568C128.399 12.2019 128.671 12.4961 129.107 12.4961H151.278V15.5H129.107C126.69 15.5 125.046 13.8077 125.046 11.332V4.90234C125.046 2.06791 126.233 0.501953 129.107 0.501953L151.278 0.500977V3.50488ZM24.8594 0.500977C27.1718 0.501277 28.1719 2.74353 28.1719 4.81641V6.55078C28.1719 9.17362 26.6301 11.079 23.9424 11.0791H4.04297V15.499H0.666016V0.500977H24.8594ZM55.2822 0.5C57.5529 0.500136 59.1992 1.91741 59.1992 4.28711V11.7129C59.1992 14.0837 57.5529 15.4989 55.2822 15.499H35.5479C33.2771 15.499 31.6309 14.0838 31.6309 11.7129V4.28711C31.6309 1.91734 33.2771 0.500052 35.5479 0.5H55.2822ZM87.1416 0.500977C88.8708 0.500977 90.4551 1.66425 90.4551 3.50488V7.39746C90.4551 9.0263 89.2044 9.89342 87.7881 10.2754C89.8296 11.2488 90.2466 13.4055 90.4551 15.499H87.1416C86.9954 13.2362 86.0367 11.0791 83.4746 11.0791H66.2217V15.499H62.8457V0.500977H87.1416ZM121.022 3.50488H98.5605C97.6642 3.50488 97.2891 4.16092 97.2891 5.02832C97.2892 5.85297 97.7063 6.48828 98.5605 6.48828H116.877C119.878 6.4883 121.502 7.94812 121.502 11.0576C121.502 13.6595 120.128 15.4989 117.462 15.499H94.4355V12.4951H116.878C117.648 12.4951 117.982 11.8184 117.982 11.1201C117.982 10.3184 117.817 9.4707 116.878 9.4707H97.8525C95.3936 9.4707 93.9766 7.54579 93.9766 5.15527C93.9767 2.17258 95.56 0.50201 98.5615 0.501953L121.022 0.500977V3.50488ZM158.301 6.33984H177.91V0.500977H181.389V15.499H177.91V9.34277H158.301V15.499H154.903V0.500977H158.301V6.33984ZM212.666 3.50488H188.327V6.4043H212.666V9.38574H188.327V12.4951H212.666V15.499H184.952V0.500977H212.666V3.50488ZM37.1533 3.50098C36.1046 3.50099 35.2619 3.96741 35.2617 5.17383V10.8271C35.2618 12.0348 36.1247 12.5 37.1533 12.5H54.0557C55.0832 12.5 55.9266 12.0349 55.9268 10.8271V5.17383C55.9266 3.96739 55.1044 3.50098 54.0557 3.50098H37.1533ZM4.66602 8.0752H23.665C24.4879 8.07515 25.2069 7.73632 25.207 6.7832V5.08984C25.2069 4.09523 24.6309 3.50202 23.665 3.50195L4.66602 3.50098V8.0752ZM66.0225 3.50098V8.0752H85.8438C86.5011 8.0752 86.666 7.5027 86.666 6.93164V4.89746C86.6659 3.92362 86.3167 3.5 85.3496 3.5L66.0225 3.50098Z" fill="#003363"/>
</svg>
