<svg width="244" height="35" viewBox="0 0 244 35" fill="none" xmlns="http://www.w3.org/2000/svg">
<path d="M0.666016 34.5L5.18335 27.3014H31.3106C32.7757 27.3014 33.7524 26.3254 33.7524 24.8612V20.6722H11.2879C4.6136 20.6722 1.64274 17.744 1.64274 11.1962V8.34928C1.64274 3.4689 4.5322 0.5 9.09023 0.5H9.61929V11.0335C9.61929 12.4976 10.596 13.4737 12.0611 13.4737H33.7931C38.7581 13.4737 41.6883 16.4426 41.6883 21.2416V24.9833C41.6883 31.3278 38.5546 34.5 32.0432 34.5H0.666016ZM157.145 27.1794H177.33C180.668 27.1794 182.784 25.1053 182.784 21.8923V13.1077C182.784 9.89474 180.668 7.82057 177.33 7.82057H157.145V27.1794ZM149.046 34.5V0.5H177.534C186.039 0.5 190.923 5.38038 190.923 13.4737V21.5263C190.923 29.6196 186.039 34.5 177.534 34.5H149.046ZM109.774 27.1794H126.826C129.919 27.1794 131.913 25.2679 131.913 22.2177V12.7823C131.913 9.77273 129.919 7.82057 126.826 7.82057H109.774C106.681 7.82057 104.687 9.73206 104.687 12.7823V22.2177C104.687 25.2679 106.681 27.1794 109.774 27.1794ZM126.989 34.5H109.57C101.35 34.5 96.5881 29.7416 96.5881 21.8517V13.189C96.5881 5.29904 101.35 0.54067 109.57 0.54067H126.989C135.209 0.54067 139.971 5.29904 139.971 13.189V21.8517C140.012 29.7416 135.25 34.5 126.989 34.5ZM194.22 34.5L213.306 0.5H224.579L243.666 34.5H234.428L231.131 28.6435H214.853L210.498 21.689L203.295 34.4593H194.22V34.5ZM210.702 21.323H227.021L218.841 6.8445L210.702 21.323ZM17.5958 7.57656L12.9564 0.5H40.9151L36.4384 7.57656H17.5958ZM50.6416 34.5V0.5H58.7402V13.7584H69.4841L83.4431 0.5H94.187L76.4433 17.4187L94.5126 34.5H83.1175L69.1586 21.0789H58.7402V34.5H50.6416Z" fill="#0E3A2F"/>
</svg>
