<svg width="232" height="31" viewBox="0 0 232 31" fill="none" xmlns="http://www.w3.org/2000/svg">
<path d="M197.998 12.4344V30.5846H203.8V18.4844H225.017V30.5846H230.818V12.4344H197.998ZM203.137 6.55006H225.514C228.663 5.96992 230.901 3.15208 231.564 0.5H197.087C197.75 3.15208 200.07 5.88704 203.137 6.55006ZM180.345 30.5846C183.246 29.3414 184.821 27.1866 185.484 24.7003H159.377V0.582878H153.493V30.5846H180.345ZM109.982 6.46719H130.702C133.851 5.55553 136.42 3.15208 137.083 0.582878H104.264V18.3187H131.116V24.5345H110.065C106.75 25.4462 103.932 27.6838 102.523 30.5846H136.918V12.4344H110.065L109.982 6.46719ZM58.9298 6.55006H81.3068C84.4561 5.96992 86.7767 3.15208 87.3568 0.5H52.7969C53.4599 3.15208 55.7805 5.88704 58.9298 6.55006ZM58.9298 18.4016H81.3068C84.4561 17.8214 86.7767 15.0036 87.3568 12.3515H52.7969C53.4599 15.0036 55.7805 17.7385 58.9298 18.4016ZM58.9298 30.5846H81.3068C84.4561 30.0044 86.7767 27.1866 87.3568 24.5345H52.7969C53.4599 27.1866 55.7805 30.0044 58.9298 30.5846Z" fill="#003363"/>
<path d="M0.666016 0.582878C1.32904 3.23496 3.64961 5.88704 6.71608 6.55006H16.1641L16.6614 6.71582V30.5017H22.5457V6.71582L23.043 6.55006H32.491C35.6404 5.72129 37.8781 3.23496 38.5411 0.582878V0.5L0.666016 0.582878Z" fill="#003363"/>
</svg>
